<?xml version="1.0" encoding="utf-8"?>
<!-- Generator: Adobe Illustrator 23.0.3, SVG Export Plug-In . SVG Version: 6.00 Build 0)  -->
<svg version="1.1" id="Calque_1" xmlns="http://www.w3.org/2000/svg" xmlns:xlink="http://www.w3.org/1999/xlink" x="0px" y="0px"
	 viewBox="0 0 151.94 57.83" style="enable-background:new 0 0 151.94 57.83;" xml:space="preserve">
<style type="text/css">
	.st0{fill:#D7B377;}
	.st1{fill:#2A4162;}
	.st2{fill:none;}
</style>
<rect class="st0" width="151.94" height="57.83"/>
<path class="st1" d="M134.8,47.73h-34.77c-7.51,0-13.61-6.09-13.61-13.61V8.43h27.78c11.38,0,20.6,9.22,20.6,20.6V47.73z"/>
<g>
	<rect x="25.7" y="18.14" class="st2" width="109.09" height="29.59"/>
	<path d="M40.82,18.16c0.36,0.14,0.55,0.55,0.41,0.94l-6.98,17.81c-0.1,0.29-0.36,0.46-0.65,0.46c-0.31,0-0.58-0.17-0.67-0.46
		L25.75,19.1c-0.14-0.38,0.05-0.79,0.41-0.94c0.36-0.14,0.79,0.02,0.94,0.38c5.4,13.39,6.5,16.15,6.5,16.15s1.08-2.76,6.29-16.13
		C40.03,18.19,40.44,18.02,40.82,18.16z"/>
	<path d="M53.88,24.86c2.06,0,3.77,1.68,3.77,3.77v2.76c0,0.41-0.31,0.72-0.72,0.72c-11.14,0-12.82,0-12.82,0s0,0.62,0,1.46
		c0,1.3,1.06,2.35,2.35,2.35h10.01c0.38,0,0.72,0.31,0.72,0.7c0,0.41-0.34,0.72-0.72,0.72H46.46c-2.09,0-3.77-1.68-3.77-3.77v-4.94
		c0-2.09,1.68-3.77,3.77-3.77H53.88z M44.11,30.69c1.13,0,10.9,0,12.12,0c0,0,0-0.84,0-2.06c0-1.3-1.06-2.35-2.35-2.35h-7.42
		c-1.3,0-2.35,1.06-2.35,2.35C44.11,29.66,44.11,30.69,44.11,30.69z M51.74,21.76l-1.42,1.66c-0.26,0.31-0.74,0.34-1.06,0.07
		c-0.31-0.26-0.34-0.74-0.07-1.06l1.42-1.66c0.26-0.34,0.74-0.36,1.06-0.1C51.98,20.97,52.01,21.43,51.74,21.76z"/>
	<path d="M59.92,18.86c0-0.41,0.31-0.72,0.72-0.72c0.38,0,0.72,0.31,0.72,0.72v14.69c0,1.3,1.06,2.35,2.35,2.35h2.38
		c0.38,0,0.72,0.34,0.72,0.72s-0.34,0.72-0.72,0.72h-2.38c-2.09,0-3.79-1.7-3.79-3.79V18.86z"/>
	<path d="M80.3,24.86c2.09,0,3.79,1.7,3.79,3.79v4.9c0,2.09-1.7,3.79-3.79,3.79h-9.07c-2.09,0-3.79-1.7-3.79-3.79v-4.9
		c0-2.09,1.7-3.79,3.79-3.79H80.3z M68.88,33.55c0,1.3,1.06,2.35,2.35,2.35h9.07c1.3,0,2.35-1.06,2.35-2.35v-4.9
		c0-1.3-1.06-2.35-2.35-2.35h-9.07c-1.3,0-2.35,1.06-2.35,2.35V33.55z"/>
	<path class="st0" d="M91.25,37.37V19.92h12.77c0.85,0,1.62,0.1,2.32,0.29c0.7,0.19,1.29,0.48,1.79,0.85
		c0.5,0.38,0.88,0.85,1.15,1.42c0.27,0.57,0.41,1.22,0.41,1.96c0,0.56-0.06,1.05-0.19,1.46s-0.3,0.77-0.53,1.07
		c-0.22,0.3-0.48,0.54-0.78,0.74s-0.6,0.35-0.92,0.44c0.8,0.26,1.46,0.72,1.97,1.39s0.77,1.52,0.77,2.54c0,0.8-0.13,1.52-0.4,2.17
		c-0.26,0.65-0.64,1.2-1.13,1.67c-0.49,0.46-1.08,0.82-1.78,1.07c-0.7,0.25-1.47,0.37-2.32,0.37H91.25z M96.51,29.78v-2.57h7.54
		c0.86,0,1.5-0.16,1.92-0.48s0.62-0.86,0.62-1.63c0-0.46-0.09-0.84-0.26-1.12c-0.18-0.28-0.43-0.5-0.76-0.65
		c-0.33-0.15-0.72-0.25-1.18-0.3s-0.96-0.07-1.52-0.07H94.3v11.38h8.83c0.54,0,1.05-0.04,1.51-0.12s0.86-0.21,1.2-0.4
		c0.34-0.18,0.6-0.42,0.78-0.71c0.18-0.29,0.28-0.65,0.28-1.08c0-0.72-0.22-1.28-0.67-1.67c-0.45-0.39-1.1-0.59-1.97-0.59H96.51z"/>
	<path class="st0" d="M112.66,37.37V19.92h15.58v3.05h-12.55v11.35h12.58v3.05H112.66z M117.91,29.78v-2.57h9.67v2.57H117.91z"/>
</g>
<g>
</g>
<g>
</g>
<g>
</g>
<g>
</g>
<g>
</g>
<g>
</g>
</svg>
